<svg width="1600" height="1600" viewBox="0 0 1600 1600" fill="none" xmlns="http://www.w3.org/2000/svg">
<circle cx="800" cy="800" r="800" fill="white"/>
<circle cx="800" cy="800" r="705" stroke="#FFCC2A" stroke-width="190"/>
<circle cx="800" cy="800" r="710" stroke="#003593" stroke-width="180"/>
<circle cx="800" cy="800" r="780" stroke="#FFCC2A" stroke-width="40"/>
<path d="M1490.79 828.753L1525 854L1512 813.5L1547.5 787.61H1503.5L1490.31 746L1477.44 787.61H1433.5L1468.5 813.5L1455.99 854L1490.79 828.753Z" fill="#FFCC2A"/>
<path d="M110.285 828.753L144.5 854L131.5 813.5L167 787.61H123L109.809 746L96.9404 787.61H53L88 813.5L75.4936 854L110.285 828.753Z" fill="#FFCC2A"/>
<path d="M1154 512.893L451.659 508L447 926.883V944.008C448.346 948.991 451.038 959.176 451.038 960.046C451.038 960.915 454.766 972.368 456.63 977.986C458.286 982.607 461.724 992.23 462.221 993.752C462.718 995.274 468.227 1006.53 470.919 1011.96L480.859 1030.72L492.042 1047.57L506.331 1065.79L521.552 1083.18L529.007 1090.52L547.334 1106.02L566.283 1120.97L589.58 1136.19L611.635 1149.24L637.418 1161.47L656.677 1169.89L685.255 1178.87L709.795 1185.12L744.586 1190.28L772.854 1193H833.738L857.967 1190.28L883.439 1185.12L912.949 1178.87L939.663 1169.89L965.135 1159.29L992.782 1144.89L1010.49 1135.37L1029.44 1121.78L1052.42 1104.38L1071.68 1087.53L1092.49 1063.34L1110.51 1040.51L1125.11 1014.14L1138.16 986.413L1146.54 962.22L1150.27 945.639L1154 512.893Z" fill="#0D613F"/>
<path d="M905 589C926.804 589 944.5 606.897 944.5 629C944.5 651.103 926.804 669 905 669C883.196 669 865.5 651.103 865.5 629C865.5 606.897 883.196 589 905 589Z" fill="white" stroke="black" stroke-width="2"/>
<path d="M876.5 579.114V601.932C876.5 602.372 876.645 602.799 876.912 603.148L879.865 607.002C879.985 607.158 880.127 607.296 880.287 607.41L887.491 612.576L897.064 617.915L906.636 622.186L920.464 628.237L932.518 631.797L943.959 634.929C944.131 634.976 944.309 635 944.487 635H947.757C948.22 635 948.668 634.839 949.026 634.545L952.104 632.017C952.282 631.871 952.433 631.696 952.551 631.498L954.217 628.711C954.402 628.401 954.5 628.046 954.5 627.685V624.979C954.5 624.552 954.364 624.137 954.111 623.793L948.473 616.136L938.191 602.61L927.999 589.908C927.939 589.834 927.874 589.764 927.804 589.699L917.923 580.463C917.728 580.28 917.498 580.139 917.247 580.047L903.091 574.847L892.347 572.064C892.183 572.021 892.014 572 891.845 572H884.065C883.753 572 883.446 572.073 883.167 572.213L878.63 574.49C878.173 574.72 877.821 575.115 877.647 575.596L876.62 578.433C876.54 578.651 876.5 578.882 876.5 579.114Z" fill="#983134"/>
<circle cx="668.5" cy="751" r="33" fill="white" stroke="black" stroke-width="2"/>
<path d="M659.466 704.709L653.764 704L650.557 704.709L647.351 706.128L645.569 707.901L644.856 710.738L644.5 714.284V717.121V722.44C644.5 723.007 644.738 725.749 644.856 727.05L646.638 729.532L650.201 733.078L654.833 736.27L661.247 739.816L671.58 744.78C674.075 745.726 679.134 747.688 679.42 747.972C679.705 748.255 685.477 749.981 688.328 750.809L694.741 752.582L699.73 753.645L703.293 754L705.431 753.291L706.5 752.227V749.035V746.199L705.431 742.298L701.155 735.915L694.741 728.113L689.753 721.73L685.477 717.121L679.776 712.865L674.787 709.319L666.948 706.837L659.466 704.709Z" fill="#983134" stroke="black"/>
<path d="M573.5 853.5L566 861.5L565 864L565.5 866.391L566.5 868.5L568 869.5L569.5 870L570.983 870.291L572.5 870.5L573.821 870.291L576.304 868.873L578.787 866.745L583.044 862.845L588.719 858.591L594.395 854.336L600.425 850.082L606.101 846.536L612.486 842.636L625.611 836.609L632.35 833.773L639.799 831.645L646.539 830.227L655.053 828.809L660.728 827.745H667.468H674.562L680.593 828.1L684.5 829L686.5 829.5L688 830L695.846 832L704.004 834.836L711.5 839L719.612 844.055L723.869 847.245L729.899 853.627L734.511 858.236L736.639 860.009L737.348 859.655L740.186 856.109L743.379 851.145L746.571 846.536L750.828 840.155L754.73 833.773L759.341 826.327L762.534 821.009L765.372 814.982L767.145 811.436L767.5 807.891V802.218V799.382V795.482L767.145 794.418L766.081 793H763.953L761.824 794.773L759.341 797.255L755.439 803.991L751.183 813.564L746.926 820.655L743.024 826.327L738.058 832.709L733.447 838.382L732.382 836.964L729.899 834.836L724.933 830.227L721.031 826.327L716.42 822.427L712.163 818.173L706.842 813.564L701.876 809.664L695.846 805.764L689.461 801.509L685.559 799.382L680.238 797.255L675 796L671.37 795.482H666.404L660.5 796L655.053 797.255L647.958 799.382L643.347 801.509L637.671 803.991L632.705 806.473L624.546 810.727L616.033 815.691L609.293 821.009L602.199 826.682L594.75 833.418L586.946 840.864L579.496 847.955L573.5 853.5Z" fill="white" stroke="black" stroke-width="2"/>
<path d="M607.5 1014.47V1011.29C611.198 966.664 628.715 916.67 637.011 897.252L639.5 891.249L641.989 885.247L644.833 878.892L649.1 870.772L653.011 864.77L655.5 860.533L659.056 856.649L661.544 854.531L664.033 852.412L665.456 851.706L667.589 851.353L669.367 851H670.789L673.278 851.353C683.233 855.59 703.5 864.77 734.789 1007.41L735.5 1011.29V1014.47L734.078 1016.23L731.589 1016.94L729.811 1017.29L727.5 1016.23L726.5 1013L725 1007.41L722.7 998.934L720.211 989.755L719 985L717.367 978.457L714.878 969.983L711.5 960L708.478 951.624L705.989 945.622L704 941L702.078 936.795L698.167 929.027L694.967 923.732L691.767 918.789L687.856 913.493L685 910.5L683.5 909L682 907.5L680.5 906.5L678.967 905.725L675.411 904.313H671.144L666.522 905.019L662.967 906.078L659.056 908.197L654.433 911.727L650.878 915.964L646.967 920.554L642.7 926.203L638.433 933.264L634.167 941.738L630.611 951.271L628.122 959.744L625.278 968.924L623.144 978.457L620.656 990.108L618.878 997.522C618.318 999.411 617.537 1003.75 617.499 1004C617.506 1003.97 617.507 1003.96 617.5 1004C617.497 1004.02 617.496 1004.02 617.499 1004C617.425 1004.33 616.715 1007.61 616.5 1009L616.033 1013.76L615.322 1015.88L613.189 1017.65L611.056 1018L609 1017L607.5 1014.47Z" fill="white" stroke="black" stroke-width="2"/>
<path d="M910.469 763.01C880.539 761.97 843.27 843.215 813.561 1015.64L812.5 1020.61V1024.16L814.268 1026.29C814.622 1026.53 815.471 1027 816.037 1027C816.603 1027 818.395 1026.05 819.22 1025.58L820.281 1024.16L820.988 1021.32V1017.42C852.489 901.264 880.4 845.762 910.823 848.957C944.973 851.978 972.051 908.545 995.706 1015.64L997.829 1019.55L1000.3 1023.1L1004.19 1024.52L1007.38 1023.1L1009.5 1019.55V1015.64L1008.44 1013.16C979.083 852.085 939.94 764.033 910.469 763.01Z" fill="white" stroke="black" stroke-width="2"/>
<path d="M910.444 679.018C944.735 678.173 999.129 707.879 1035.06 770.361C1040.21 777.261 999.657 784.923 947.367 800C947.308 798.585 944.853 794.518 936.006 782.004C981.691 768.886 1014.01 761.279 994.585 750.6C905.111 712.847 855.684 730.712 768.077 791.884L764.527 790.474C764.569 783.533 763.817 780.238 768.077 772.829C772.337 765.42 777.279 760.317 779.793 758.01C847.692 695.147 876.152 679.862 910.444 679.018Z" fill="white" stroke="black" stroke-width="2"/>
<path d="M1174 500.121L431.923 495L427 933.451V951.376C428.422 956.592 431.267 967.253 431.267 968.163C431.267 969.074 435.205 981.061 437.174 986.942C438.925 991.779 442.557 1001.85 443.082 1003.44C443.607 1005.04 449.428 1016.82 452.272 1022.51L462.775 1042.14L474.59 1059.78L489.688 1078.84L505.77 1097.05L513.647 1104.73L533.011 1120.95L553.032 1136.6L577.647 1152.53L600.95 1166.19L628.191 1179L648.54 1187.82L678.735 1197.2L704.663 1203.75L741.423 1209.15L771.29 1212H835.618L861.218 1209.15L888.131 1203.75L919.311 1197.2L947.537 1187.82L974.45 1176.72L1003.66 1161.64L1022.37 1151.68L1042.39 1137.45L1066.68 1119.25L1087.03 1101.6L1109.01 1076.28L1128.05 1052.38L1143.48 1024.78L1157.26 995.762L1166.12 970.439L1170.06 953.083L1174 500.121Z" stroke="#FBCF28" stroke-width="18"/>
<path d="M394.289 241.368L416.806 269.537C416.766 271.756 416.215 274.57 415.153 277.98C414.065 281.356 412.141 285.055 409.38 289.075C406.62 293.096 402.652 297.174 397.477 301.311C392.888 304.979 388.108 307.574 383.136 309.095C378.137 310.583 373.101 310.955 368.025 310.211C362.982 309.441 358.038 307.526 353.191 304.466C348.318 301.373 343.697 297.093 339.326 291.625L335.775 287.183C331.404 281.715 328.214 276.29 326.205 270.908C324.229 265.499 323.389 260.277 323.683 255.24C323.978 250.204 325.337 245.464 327.759 241.02C330.182 236.577 333.622 232.573 338.081 229.009C344.265 224.066 350.149 221.016 355.732 219.86C361.29 218.671 366.528 219.018 371.447 220.901C376.372 222.725 380.9 225.72 385.031 229.886L370.824 241.242C368.541 239.12 366.179 237.567 363.74 236.583C361.3 235.6 358.733 235.358 356.038 235.858C353.377 236.332 350.565 237.753 347.603 240.12C345.162 242.072 343.385 244.319 342.271 246.863C341.164 249.348 340.727 252.071 340.96 255.032C341.193 257.993 342.1 261.163 343.68 264.54C345.26 267.918 347.546 271.479 350.538 275.222L354.167 279.762C357.133 283.472 360.118 286.473 363.124 288.765C366.103 291.024 369.073 292.57 372.034 293.405C375.001 294.18 377.916 294.224 380.779 293.535C383.643 292.846 386.458 291.396 389.224 289.185C391.535 287.338 393.299 285.607 394.517 283.994C395.767 282.355 396.642 280.881 397.144 279.573C397.652 278.207 397.958 277.055 398.063 276.118L387.995 263.523L374.618 274.216L366.267 263.768L394.289 241.368Z" fill="white"/>
<path d="M436.413 163.892L452.477 154.343L483.199 206.027C486.776 212.044 488.499 217.878 488.369 223.53C488.274 229.161 486.588 234.356 483.31 239.116C480.068 243.855 475.527 247.959 469.689 251.43C463.851 254.9 458.04 256.948 452.257 257.575C446.509 258.18 441.122 257.19 436.094 254.604C431.103 251.996 426.819 247.684 423.242 241.667L392.52 189.984L408.637 180.403L439.36 232.086C441.446 235.596 443.704 238.132 446.135 239.692C448.565 241.253 451.128 241.935 453.822 241.739C456.553 241.522 459.351 240.561 462.216 238.858C465.153 237.112 467.334 235.113 468.758 232.861C470.218 230.587 470.825 228.021 470.58 225.162C470.37 222.281 469.222 219.086 467.135 215.576L436.413 163.892Z" fill="white"/>
<path d="M520.86 139.976L527.424 219.098L509.059 226.858L504.786 129.873L516.473 124.935L520.86 139.976ZM569.163 201.461L516.946 141.63L509.046 128.073L520.848 123.086L587.586 193.677L569.163 201.461ZM554.942 170.696L560.659 184.225L516.386 202.932L510.67 189.402L554.942 170.696Z" fill="white"/>
<path d="M574.945 102.68L607.694 93.7743C614.408 91.9484 620.451 91.3846 625.822 92.0829C631.234 92.7702 635.782 94.7287 639.467 97.9582C643.152 101.188 645.776 105.677 647.34 111.427C648.619 116.131 648.914 120.39 648.224 124.205C647.564 127.969 646.092 131.37 643.809 134.409C641.556 137.396 638.68 140.078 635.181 142.455L630.272 147.028L601.805 154.769L597.847 140.69L619.016 134.933C622.192 134.069 624.672 132.79 626.457 131.096C628.242 129.402 629.383 127.407 629.882 125.113C630.421 122.807 630.33 120.327 629.608 117.674C628.843 114.859 627.658 112.569 626.055 110.803C624.452 109.036 622.438 107.9 620.012 107.394C617.585 106.888 614.764 107.072 611.548 107.947L596.892 111.932L616.917 185.571L598.824 190.491L574.945 102.68ZM647.917 177.141L617.25 143.445L636.335 138.125L667.046 171.032L667.276 171.876L647.917 177.141Z" fill="white"/>
<path d="M709.039 165.622L689.401 168.244L687.589 153.732L707.103 151.126C711.977 150.475 715.94 148.831 718.993 146.196C722.04 143.519 724.127 139.94 725.252 135.46C726.418 130.975 726.599 125.717 725.794 119.687L725.206 115.289C724.589 110.663 723.55 106.661 722.09 103.283C720.671 99.8996 718.852 97.1369 716.632 94.9952C714.412 92.8536 711.839 91.3686 708.912 90.5405C705.979 89.671 702.717 89.4762 699.124 89.956L678.928 92.653L676.984 78.0948L697.179 75.3977C703.209 74.5925 708.861 74.8887 714.134 76.2863C719.443 77.6372 724.188 79.9669 728.372 83.2757C732.555 86.5844 735.99 90.7496 738.679 95.7713C741.403 100.746 743.195 106.455 744.056 112.898L744.627 117.172C745.481 123.574 745.25 129.553 743.932 135.11C742.656 140.661 740.433 145.581 737.265 149.872C734.133 154.116 730.164 157.609 725.36 160.353C720.592 163.049 715.151 164.806 709.039 165.622ZM687.887 76.6387L699.932 166.838L681.347 169.32L669.302 79.1206L687.887 76.6387Z" fill="white"/>
<path d="M805.123 83.6985L780.146 159.061L760.208 159.001L794.295 68.1032L806.983 68.1415L805.123 83.6985ZM825.458 159.198L800.873 83.6856L798.92 68.1172L811.733 68.1558L845.458 159.258L825.458 159.198ZM824.435 125.319L824.391 140.007L776.329 139.862L776.373 125.174L824.435 125.319Z" fill="white"/>
<path d="M920.851 76.8442L936.356 80.2542L944.834 150.528L982.014 90.2961L997.519 93.706L945.864 175.52L933.412 172.782L920.851 76.8442ZM912.489 75.005L927.932 78.4015L916.751 142.624L911.193 167.895L892.942 163.881L912.489 75.005ZM990.438 92.1487L1005.94 95.5587L986.396 184.435L968.083 180.407L973.641 155.136L990.438 92.1487Z" fill="white"/>
<path d="M1054.65 112.975L1024.48 198.829L1006.85 192.633L1037.02 106.78L1054.65 112.975Z" fill="white"/>
<path d="M1083.46 123.455L1114.22 137.787C1120.53 140.726 1125.51 144.195 1129.16 148.195C1132.85 152.213 1135.06 156.644 1135.8 161.489C1136.53 166.334 1135.63 171.457 1133.12 176.858C1131.06 181.277 1128.53 184.721 1125.55 187.19C1122.61 189.638 1119.29 191.287 1115.59 192.135C1111.94 192.963 1108.01 193.155 1103.8 192.712L1097.1 193.038L1070.36 180.579L1076.43 167.27L1096.31 176.534C1099.29 177.924 1102.01 178.548 1104.47 178.406C1106.93 178.263 1109.09 177.476 1110.95 176.045C1112.85 174.632 1114.38 172.679 1115.54 170.186C1116.77 167.542 1117.35 165.029 1117.26 162.645C1117.18 160.261 1116.37 158.093 1114.84 156.141C1113.32 154.188 1111.04 152.508 1108.02 151.101L1094.26 144.687L1062.03 213.861L1045.03 205.942L1083.46 123.455ZM1091.15 227.427L1089.47 181.896L1107.48 190.15L1109.7 235.107L1109.33 235.9L1091.15 227.427Z" fill="white"/>
<path d="M1185.22 175.763L1138.9 254.092L1122.81 244.579L1169.13 166.251L1185.22 175.763Z" fill="white"/>
<path d="M1220.23 197.197L1232.82 206.874L1210.62 274.087L1269.88 235.37L1282.46 245.047L1200.93 297.148L1190.83 289.376L1220.23 197.197ZM1213.45 191.978L1225.98 201.616L1188.56 254.996L1172.79 275.509L1157.98 264.117L1213.45 191.978ZM1276.72 240.628L1289.3 250.304L1233.83 322.444L1218.97 311.015L1234.74 290.503L1276.72 240.628Z" fill="white"/>
<path d="M505.226 1373.11L455.86 1449.55L440.109 1439.38L442.486 1368.3L409.394 1419.55L393.643 1409.38L443.009 1332.93L458.76 1343.1L456.402 1414.27L489.528 1362.97L505.226 1373.11Z" fill="white"/>
<path d="M542.259 1408.22L488.011 1466.19L469.932 1457.78L538.959 1389.52L550.464 1394.87L542.259 1408.22ZM529.1 1485.29L538.406 1406.43L543.153 1391.47L554.771 1396.87L547.235 1493.73L529.1 1485.29ZM542.362 1454.1L536.169 1467.42L492.587 1447.16L498.78 1433.84L542.362 1454.1Z" fill="white"/>
<path d="M598.793 1490.36L640.689 1428L660.618 1434.21L603.281 1511.66L590.154 1507.57L598.793 1490.36ZM601.368 1415.74L600.344 1490.84L597.792 1509.95L584.546 1505.82L581.558 1409.57L601.368 1415.74Z" fill="white"/>
<path d="M686.709 1438.44L668.213 1527.54L649.915 1523.74L668.412 1434.64L686.709 1438.44Z" fill="white"/>
<path d="M702.031 1442.02L735.768 1445.7C742.686 1446.45 748.517 1448.13 753.261 1450.75C758.047 1453.36 761.565 1456.85 763.815 1461.2C766.065 1465.56 766.867 1470.69 766.221 1476.62C765.692 1481.46 764.41 1485.54 762.373 1488.83C760.383 1492.1 757.77 1494.72 754.535 1496.72C751.346 1498.68 747.688 1500.12 743.563 1501.05L737.322 1503.52L707.995 1500.32L709.457 1485.77L731.265 1488.15C734.537 1488.5 737.313 1488.22 739.594 1487.29C741.874 1486.37 743.666 1484.93 744.969 1482.98C746.313 1481.03 747.134 1478.68 747.432 1475.95C747.748 1473.05 747.483 1470.49 746.636 1468.26C745.79 1466.03 744.33 1464.23 742.257 1462.88C740.183 1461.52 737.49 1460.66 734.176 1460.3L719.078 1458.65L710.805 1534.51L692.166 1532.48L702.031 1442.02ZM742.741 1538L726.51 1495.42L746.22 1497.45L762.78 1539.3L762.685 1540.17L742.741 1538Z" fill="white"/>
<path d="M815.936 1464.47L792.92 1540.45L772.988 1540.91L804.708 1449.16L817.392 1448.87L815.936 1464.47ZM838.221 1539.41L811.687 1464.56L809.331 1449.05L822.14 1448.76L858.216 1538.96L838.221 1539.41ZM836.32 1505.57L836.657 1520.26L788.607 1521.36L788.271 1506.67L836.32 1505.57Z" fill="white"/>
<path d="M881.646 1443.56L892.714 1533.89L874.165 1536.16L863.098 1445.83L881.646 1443.56ZM863.188 1440.41L873.006 1419.81L892.424 1417.43L877.705 1438.63L863.188 1440.41Z" fill="white"/>
<path d="M975.501 1469.79L978.992 1483.48L944.775 1492.2L941.284 1478.52L975.501 1469.79Z" fill="white"/>
<path d="M1015.2 1410.48L1029.61 1403.81L1078.86 1454.65L1072.05 1384.2L1086.46 1377.54L1094.8 1473.93L1083.23 1479.28L1015.2 1410.48ZM1007.43 1414.07L1021.78 1407.43L1051.72 1465.34L1062.58 1488.83L1045.61 1496.67L1007.43 1414.07ZM1079.88 1380.58L1094.29 1373.92L1132.47 1456.52L1115.45 1464.39L1104.59 1440.9L1079.88 1380.58Z" fill="white"/>
<path d="M1179.8 1397.62C1178.91 1396.26 1177.89 1395.18 1176.77 1394.38C1175.65 1393.52 1174.26 1392.99 1172.58 1392.79C1170.88 1392.56 1168.76 1392.64 1166.22 1393.02C1163.67 1393.39 1160.53 1394.12 1156.79 1395.18C1152.61 1396.34 1148.52 1397.24 1144.5 1397.88C1140.52 1398.51 1136.74 1398.68 1133.16 1398.39C1129.6 1398.05 1126.32 1397.09 1123.33 1395.51C1120.39 1393.91 1117.83 1391.47 1115.68 1388.2C1113.59 1385.04 1112.4 1381.71 1112.1 1378.21C1111.77 1374.69 1112.25 1371.18 1113.54 1367.68C1114.81 1364.15 1116.82 1360.76 1119.57 1357.51C1122.35 1354.23 1125.79 1351.24 1129.9 1348.54C1135.5 1344.85 1141.05 1342.64 1146.56 1341.9C1152.06 1341.17 1157.12 1341.81 1161.73 1343.81C1166.38 1345.79 1170.19 1349.04 1173.17 1353.57L1157.61 1363.81C1156.15 1361.58 1154.39 1359.94 1152.35 1358.89C1150.33 1357.78 1148.05 1357.36 1145.53 1357.62C1143.05 1357.86 1140.39 1358.91 1137.57 1360.77C1134.86 1362.55 1132.87 1364.46 1131.61 1366.49C1130.33 1368.48 1129.7 1370.47 1129.71 1372.46C1129.7 1374.41 1130.25 1376.24 1131.37 1377.94C1132.22 1379.23 1133.3 1380.19 1134.62 1380.82C1135.97 1381.43 1137.58 1381.76 1139.47 1381.82C1141.35 1381.88 1143.49 1381.69 1145.9 1381.25C1148.31 1380.81 1151 1380.16 1153.97 1379.3C1158.94 1377.83 1163.5 1376.84 1167.67 1376.35C1171.86 1375.83 1175.67 1375.85 1179.07 1376.4C1182.48 1376.95 1185.53 1378.1 1188.24 1379.86C1190.94 1381.62 1193.33 1384.07 1195.39 1387.2C1197.57 1390.51 1198.87 1393.89 1199.3 1397.35C1199.73 1400.81 1199.33 1404.24 1198.08 1407.66C1196.84 1411.07 1194.84 1414.36 1192.08 1417.52C1189.32 1420.68 1185.86 1423.64 1181.68 1426.39C1177.92 1428.86 1173.89 1430.82 1169.6 1432.25C1165.28 1433.64 1160.96 1434.32 1156.64 1434.27C1152.35 1434.2 1148.29 1433.18 1144.45 1431.22C1140.61 1429.25 1137.29 1426.13 1134.47 1421.85L1150.18 1411.51C1151.74 1413.87 1153.42 1415.63 1155.23 1416.79C1157.04 1417.94 1158.93 1418.59 1160.92 1418.73C1162.94 1418.84 1165.03 1418.52 1167.17 1417.76C1169.34 1416.97 1171.55 1415.85 1173.77 1414.38C1176.49 1412.59 1178.46 1410.74 1179.7 1408.83C1180.97 1406.9 1181.58 1404.98 1181.52 1403.07C1181.49 1401.14 1180.92 1399.32 1179.8 1397.62Z" fill="white"/>
<g clip-path="url(#clip0_19_391)">
<path d="M616.46 1299.48C612.395 1297.76 607.69 1299.66 605.971 1303.73L605.019 1305.98L609.012 1307.67L609.964 1305.42C610.752 1303.55 612.907 1302.68 614.772 1303.47C616.636 1304.26 617.51 1306.41 616.721 1308.28L615.769 1310.53L619.762 1312.22L620.714 1309.97C622.432 1305.9 620.526 1301.2 616.46 1299.48ZM626.127 1276.63C622.061 1274.91 617.357 1276.81 615.637 1280.88L613.758 1285.32C612.038 1289.39 613.946 1294.09 618.011 1295.81C622.076 1297.53 626.781 1295.62 628.5 1291.56L630.378 1287.12C632.098 1283.05 630.192 1278.35 626.127 1276.63ZM624.504 1289.87C623.715 1291.73 621.561 1292.61 619.696 1291.82C617.831 1291.03 616.958 1288.87 617.746 1287.01L619.624 1282.57C620.413 1280.71 622.567 1279.83 624.432 1280.62C626.297 1281.41 627.17 1283.56 626.382 1285.43L624.504 1289.87ZM627.675 1272.96C631.74 1274.68 636.445 1272.78 638.165 1268.71L639.118 1266.46L635.122 1264.77L634.168 1267.02C633.381 1268.88 631.225 1269.76 629.36 1268.97C627.496 1268.18 626.622 1266.03 627.411 1264.16L628.364 1261.91L624.372 1260.22L623.418 1262.47C621.7 1266.53 623.61 1271.24 627.675 1272.96ZM642.618 1297.07C638.553 1295.35 633.848 1297.26 632.129 1301.32L630.249 1305.77C628.53 1309.83 630.437 1314.54 634.503 1316.26C638.568 1317.98 643.273 1316.07 644.992 1312L646.87 1307.56C648.593 1303.5 646.684 1298.79 642.618 1297.07ZM641 1310.31C640.212 1312.18 638.056 1313.05 636.192 1312.26C634.327 1311.48 633.453 1309.32 634.242 1307.46L636.12 1303.02C636.909 1301.15 639.063 1300.28 640.928 1301.07C642.789 1301.86 643.666 1304.01 642.877 1305.88L641 1310.31ZM652.284 1274.22C648.219 1272.5 643.514 1274.41 641.795 1278.47L639.915 1282.92C638.196 1286.98 640.103 1291.69 644.169 1293.41C648.234 1295.13 652.939 1293.22 654.658 1289.15L656.536 1284.71C658.259 1280.65 656.35 1275.94 652.284 1274.22ZM650.666 1287.46C649.877 1289.33 647.722 1290.2 645.858 1289.41C643.993 1288.63 643.119 1286.47 643.908 1284.61L645.786 1280.17C646.573 1278.31 648.729 1277.43 650.594 1278.22C652.455 1279 653.332 1281.16 652.543 1283.03L650.666 1287.46Z" fill="#2D2D2F"/>
<path d="M618.001 1295.81C616.899 1295.35 615.965 1294.65 615.207 1293.82C615.9 1292.41 616.774 1291.09 617.685 1289.81C617.694 1289.8 617.704 1289.79 617.709 1289.78C617.886 1290.23 618.153 1290.65 618.493 1291C618.834 1291.35 619.242 1291.63 619.692 1291.81C620.714 1292.25 621.819 1292.18 622.744 1291.72L622.706 1291.91C622.572 1292.52 622.448 1293.14 622.482 1293.76C622.518 1294.39 622.735 1295.03 623.198 1295.45C623.441 1295.68 623.761 1295.82 624.089 1295.86C622.2 1296.62 620.023 1296.67 618.001 1295.81ZM627.668 1272.96C626.565 1272.5 625.631 1271.8 624.873 1270.97C625.566 1269.56 626.44 1268.24 627.351 1266.96C627.36 1266.95 627.37 1266.94 627.375 1266.93C627.552 1267.38 627.819 1267.8 628.159 1268.15C628.5 1268.5 628.908 1268.78 629.358 1268.96C630.38 1269.4 631.485 1269.32 632.41 1268.87L632.372 1269.06C632.238 1269.67 632.114 1270.29 632.148 1270.91C632.184 1271.54 632.401 1272.18 632.864 1272.6C633.107 1272.83 633.427 1272.97 633.755 1273.01C632.787 1273.41 631.751 1273.6 630.706 1273.59C629.661 1273.58 628.629 1273.37 627.668 1272.96ZM644.175 1293.41C643.073 1292.95 642.138 1292.26 641.38 1291.42C642.074 1290.02 642.947 1288.7 643.858 1287.41C643.867 1287.4 643.877 1287.39 643.882 1287.38C644.059 1287.83 644.326 1288.25 644.666 1288.6C645.007 1288.95 645.415 1289.23 645.865 1289.42C646.887 1289.85 647.992 1289.78 648.917 1289.32L648.879 1289.51C648.745 1290.12 648.621 1290.74 648.655 1291.37C648.691 1291.99 648.908 1292.63 649.371 1293.05C649.614 1293.28 649.935 1293.42 650.262 1293.47C648.373 1294.22 646.196 1294.27 644.175 1293.41ZM656.224 1277.82C655.837 1277.75 655.412 1277.8 655.053 1277.96C654.336 1278.3 653.844 1278.97 653.452 1279.66C653.221 1280.05 653.011 1280.46 652.765 1280.85C652.645 1280.27 652.386 1279.73 652.009 1279.27C651.633 1278.81 651.151 1278.45 650.605 1278.22C650.11 1278.01 649.575 1277.92 649.038 1277.94C648.501 1277.96 647.975 1278.1 647.498 1278.34C647.965 1276.8 648.501 1275.28 649.114 1273.79L649.194 1273.6C650.228 1273.6 651.28 1273.8 652.294 1274.23C654.042 1274.96 655.39 1276.26 656.224 1277.82ZM634.51 1316.26C633.408 1315.79 632.473 1315.1 631.715 1314.27C632.409 1312.86 633.283 1311.54 634.194 1310.26C634.202 1310.25 634.213 1310.24 634.218 1310.22C634.394 1310.68 634.661 1311.1 635.002 1311.45C635.343 1311.8 635.75 1312.07 636.201 1312.26C637.223 1312.7 638.328 1312.62 639.253 1312.17L639.214 1312.36C639.081 1312.97 638.957 1313.59 638.991 1314.21C639.027 1314.84 639.244 1315.47 639.707 1315.9C639.949 1316.12 640.27 1316.27 640.598 1316.31C639.629 1316.7 638.593 1316.9 637.549 1316.89C636.504 1316.88 635.472 1316.67 634.51 1316.26ZM646.558 1300.67C646.171 1300.6 645.746 1300.65 645.387 1300.81C644.67 1301.15 644.178 1301.82 643.786 1302.51C643.555 1302.9 643.345 1303.31 643.099 1303.7C642.979 1303.12 642.719 1302.58 642.343 1302.12C641.967 1301.66 641.485 1301.3 640.939 1301.07C640.444 1300.86 639.909 1300.77 639.372 1300.79C638.835 1300.81 638.309 1300.95 637.831 1301.19C638.299 1299.65 638.835 1298.13 639.448 1296.64L639.528 1296.45C640.562 1296.45 641.614 1296.65 642.628 1297.08C644.376 1297.81 645.724 1299.11 646.558 1300.67Z" fill="#33373A"/>
<path d="M647.063 1286.57C645.961 1286.1 644.685 1286.62 644.219 1287.72L638.57 1301.07C638.104 1302.18 638.621 1303.45 639.723 1303.92C640.825 1304.38 642.1 1303.87 642.566 1302.76L648.216 1289.41C648.682 1288.31 648.165 1287.03 647.063 1286.57ZM649.389 1281.07C650.491 1281.53 651.766 1281.02 652.232 1279.91L655.07 1273.21L651.077 1271.52L648.24 1278.22C647.774 1279.33 648.291 1280.6 649.389 1281.07ZM637.397 1309.42C636.295 1308.95 635.019 1309.47 634.553 1310.57L631.716 1317.28L635.712 1318.97L638.55 1312.26C639.016 1311.16 638.499 1309.88 637.397 1309.42ZM620.99 1289.19C619.887 1288.73 618.612 1289.25 618.146 1290.35L612.497 1303.7C612.031 1304.8 612.548 1306.08 613.65 1306.55C614.752 1307.01 616.027 1306.49 616.493 1305.39L622.143 1292.04C622.609 1290.94 622.092 1289.66 620.99 1289.19ZM630.656 1266.34C629.554 1265.88 628.278 1266.39 627.812 1267.5L622.163 1280.85C621.697 1281.95 622.214 1283.23 623.316 1283.7C624.418 1284.16 625.693 1283.64 626.159 1282.54L631.809 1269.19C632.275 1268.09 631.758 1266.81 630.656 1266.34Z" fill="#313538"/>
<path d="M628.558 1268.2C627.804 1269.41 627.187 1270.71 626.878 1272.1C626.74 1272.71 626.943 1273.32 627.627 1272.74C628.844 1271.7 630.145 1270.22 630.805 1268.72C631.046 1268.17 631.043 1267.47 630.402 1267.21C629.626 1266.9 628.974 1267.53 628.558 1268.2ZM618.984 1290.83C618.23 1292.04 617.613 1293.34 617.304 1294.73C617.166 1295.34 617.369 1295.96 618.053 1295.37C619.27 1294.33 620.571 1292.85 621.231 1291.36C621.472 1290.81 621.468 1290.1 620.828 1289.84C620.052 1289.53 619.398 1290.17 618.984 1290.83ZM644.851 1288.44C644.097 1289.64 643.48 1290.94 643.171 1292.33C643.033 1292.94 643.236 1293.56 643.92 1292.97C645.137 1291.94 646.438 1290.46 647.098 1288.96C647.339 1288.41 647.336 1287.71 646.695 1287.44C645.919 1287.13 645.267 1287.77 644.851 1288.44ZM635.277 1311.07C634.522 1312.28 633.905 1313.58 633.597 1314.97C633.459 1315.58 633.662 1316.19 634.346 1315.61C635.562 1314.57 636.864 1313.09 637.524 1311.59C637.765 1311.04 637.761 1310.34 637.121 1310.08C636.345 1309.77 635.693 1310.4 635.277 1311.07Z" fill="#CCD0D3"/>
<rect x="604.852" y="1258.23" width="39" height="31.7578" transform="rotate(33.7031 604.852 1258.23)" fill="white"/>
</g>
<g clip-path="url(#clip1_19_391)">
<path d="M937.799 1320.69C933.862 1322.69 932.282 1327.51 934.278 1331.45L935.383 1333.63L939.249 1331.67L938.145 1329.49C937.23 1327.68 937.953 1325.47 939.759 1324.56C941.565 1323.64 943.774 1324.36 944.689 1326.17L945.794 1328.35L949.661 1326.39L948.556 1324.21C946.563 1320.28 941.736 1318.69 937.799 1320.69ZM926.581 1298.56C922.644 1300.56 921.065 1305.38 923.061 1309.32L925.242 1313.62C927.237 1317.56 932.063 1319.14 936 1317.14C939.937 1315.15 941.516 1310.32 939.52 1306.38L937.341 1302.08C935.345 1298.15 930.518 1296.56 926.581 1298.56ZM935.649 1308.34C936.565 1310.15 935.842 1312.36 934.036 1313.28C932.23 1314.19 930.02 1313.47 929.105 1311.66L926.926 1307.36C926.011 1305.56 926.734 1303.35 928.54 1302.43C930.346 1301.52 932.555 1302.24 933.47 1304.05L935.649 1308.34ZM924.784 1295.01C928.721 1293.02 930.3 1288.19 928.305 1284.26L927.198 1282.07L923.328 1284.04L924.434 1286.22C925.348 1288.02 924.627 1290.23 922.821 1291.15C921.015 1292.06 918.805 1291.34 917.89 1289.54L916.783 1287.35L912.917 1289.31L914.023 1291.5C916.017 1295.43 920.847 1297.01 924.784 1295.01ZM952.843 1299.16C948.906 1301.15 947.327 1305.98 949.322 1309.91L951.503 1314.22C953.499 1318.15 958.324 1319.73 962.261 1317.74C966.198 1315.74 967.777 1310.92 965.781 1306.98L963.602 1302.68C961.611 1298.74 956.78 1297.16 952.843 1299.16ZM961.915 1308.94C962.828 1310.74 962.107 1312.96 960.301 1313.87C958.495 1314.79 956.286 1314.06 955.37 1312.26L953.191 1307.96C952.276 1306.15 952.999 1303.94 954.805 1303.03C956.607 1302.11 958.82 1302.83 959.736 1304.64L961.915 1308.94ZM941.626 1277.03C937.689 1279.02 936.11 1283.85 938.105 1287.78L940.286 1292.09C942.282 1296.02 947.107 1297.6 951.044 1295.61C954.981 1293.61 956.56 1288.79 954.564 1284.85L952.385 1280.55C950.393 1276.61 945.563 1275.03 941.626 1277.03ZM950.697 1286.81C951.613 1288.62 950.89 1290.83 949.084 1291.74C947.278 1292.66 945.068 1291.93 944.153 1290.13L941.974 1285.83C941.06 1284.03 941.782 1281.81 943.588 1280.9C945.39 1279.98 947.603 1280.7 948.518 1282.51L950.697 1286.81Z" fill="#2D2D2F"/>
<path d="M935.994 1317.15C934.927 1317.69 933.795 1317.96 932.669 1318C932.043 1316.56 931.598 1315.04 931.206 1313.52C931.204 1313.5 931.2 1313.49 931.195 1313.48C931.657 1313.64 932.146 1313.7 932.634 1313.67C933.121 1313.63 933.597 1313.5 934.032 1313.28C935.022 1312.78 935.68 1311.89 935.93 1310.89L936.048 1311.04C936.43 1311.53 936.825 1312.03 937.322 1312.4C937.824 1312.78 938.449 1313.03 939.073 1312.95C939.4 1312.91 939.718 1312.75 939.963 1312.53C939.322 1314.46 937.952 1316.16 935.994 1317.15ZM924.777 1295.02C923.71 1295.56 922.578 1295.83 921.452 1295.87C920.826 1294.43 920.38 1292.91 919.989 1291.39C919.987 1291.37 919.983 1291.36 919.977 1291.35C920.44 1291.51 920.929 1291.57 921.416 1291.54C921.904 1291.5 922.38 1291.37 922.815 1291.15C923.805 1290.65 924.463 1289.76 924.713 1288.76L924.83 1288.9C925.213 1289.4 925.608 1289.9 926.105 1290.27C926.607 1290.65 927.232 1290.9 927.856 1290.82C928.183 1290.78 928.501 1290.62 928.746 1290.4C928.42 1291.39 927.902 1292.31 927.221 1293.1C926.54 1293.9 925.709 1294.55 924.777 1295.02ZM951.053 1295.61C949.986 1296.15 948.854 1296.42 947.728 1296.46C947.102 1295.02 946.657 1293.5 946.265 1291.98C946.263 1291.96 946.259 1291.95 946.254 1291.94C946.716 1292.09 947.205 1292.16 947.693 1292.12C948.18 1292.09 948.656 1291.96 949.091 1291.74C950.081 1291.23 950.739 1290.34 950.989 1289.34L951.107 1289.49C951.489 1289.99 951.884 1290.49 952.381 1290.86C952.883 1291.24 953.508 1291.48 954.132 1291.41C954.459 1291.36 954.777 1291.21 955.022 1290.99C954.381 1292.92 953.011 1294.62 951.053 1295.61ZM946.918 1276.34C946.612 1276.59 946.375 1276.94 946.272 1277.33C946.065 1278.09 946.262 1278.9 946.531 1279.64C946.685 1280.07 946.863 1280.5 947.002 1280.94C946.481 1280.66 945.899 1280.5 945.306 1280.5C944.714 1280.49 944.128 1280.62 943.599 1280.89C943.119 1281.13 942.699 1281.48 942.368 1281.9C942.037 1282.33 941.804 1282.82 941.684 1283.34C940.809 1281.99 939.992 1280.6 939.249 1279.17L939.155 1278.98C939.823 1278.2 940.656 1277.52 941.639 1277.02C943.328 1276.16 945.19 1275.97 946.918 1276.34ZM962.268 1317.73C961.201 1318.27 960.069 1318.54 958.944 1318.58C958.317 1317.15 957.872 1315.63 957.48 1314.1C957.478 1314.09 957.474 1314.07 957.469 1314.06C957.931 1314.22 958.42 1314.29 958.908 1314.25C959.395 1314.22 959.871 1314.08 960.306 1313.86C961.296 1313.36 961.954 1312.47 962.204 1311.47L962.322 1311.62C962.704 1312.12 963.1 1312.61 963.596 1312.99C964.098 1313.37 964.723 1313.61 965.347 1313.53C965.675 1313.49 965.992 1313.34 966.237 1313.12C965.911 1314.11 965.393 1315.03 964.712 1315.82C964.031 1316.61 963.201 1317.26 962.268 1317.73ZM958.135 1298.47C957.829 1298.72 957.592 1299.07 957.489 1299.46C957.282 1300.22 957.479 1301.03 957.748 1301.77C957.902 1302.2 958.08 1302.63 958.22 1303.07C957.698 1302.79 957.116 1302.63 956.524 1302.63C955.931 1302.62 955.345 1302.75 954.816 1303.02C954.336 1303.26 953.916 1303.61 953.585 1304.03C953.255 1304.46 953.021 1304.95 952.902 1305.47C952.026 1304.12 951.209 1302.73 950.466 1301.3L950.372 1301.11C951.04 1300.33 951.873 1299.65 952.856 1299.15C954.545 1298.29 956.407 1298.1 958.135 1298.47Z" fill="#33373A"/>
<path d="M948.592 1289.42C947.49 1289.89 946.975 1291.16 947.442 1292.26L953.108 1305.61C953.576 1306.71 954.852 1307.23 955.953 1306.76C957.055 1306.29 957.57 1305.02 957.103 1303.92L951.437 1290.57C950.969 1289.47 949.693 1288.95 948.592 1289.42ZM946.259 1283.92C947.36 1283.45 947.876 1282.18 947.408 1281.08L944.562 1274.37L940.572 1276.07L943.418 1282.77C943.885 1283.87 945.161 1284.39 946.259 1283.92ZM958.286 1312.26C957.185 1312.72 956.669 1314 957.137 1315.1L959.982 1321.81L963.977 1320.11L961.131 1313.41C960.663 1312.3 959.388 1311.79 958.286 1312.26ZM932.346 1309.98C931.244 1310.45 930.729 1311.72 931.196 1312.82L936.862 1326.17C937.33 1327.27 938.605 1327.79 939.707 1327.32C940.808 1326.85 941.324 1325.58 940.856 1324.48L935.191 1311.13C934.723 1310.03 933.447 1309.51 932.346 1309.98ZM922.651 1287.14C921.55 1287.61 921.034 1288.88 921.502 1289.99L927.168 1303.33C927.635 1304.44 928.911 1304.95 930.013 1304.48C931.114 1304.02 931.63 1302.74 931.162 1301.64L925.496 1288.29C925.029 1287.19 923.753 1286.67 922.651 1287.14Z" fill="#313538"/>
<path d="M922.759 1289.69C923.086 1291.08 923.574 1292.43 924.343 1293.63C924.68 1294.16 925.26 1294.45 925.326 1293.55C925.446 1291.95 925.311 1289.99 924.713 1288.46C924.493 1287.9 923.991 1287.41 923.354 1287.68C922.587 1288.01 922.58 1288.93 922.759 1289.69ZM932.084 1312.43C932.411 1313.81 932.899 1315.17 933.668 1316.36C934.005 1316.89 934.585 1317.18 934.65 1316.28C934.771 1314.69 934.636 1312.72 934.038 1311.2C933.818 1310.64 933.316 1310.15 932.679 1310.42C931.912 1310.75 931.907 1311.67 932.084 1312.43ZM948.6 1292.37C948.927 1293.76 949.415 1295.11 950.184 1296.31C950.521 1296.84 951.101 1297.13 951.166 1296.23C951.287 1294.64 951.151 1292.67 950.554 1291.15C950.334 1290.59 949.832 1290.1 949.195 1290.37C948.428 1290.7 948.421 1291.61 948.6 1292.37ZM957.925 1315.11C958.252 1316.5 958.74 1317.85 959.508 1319.05C959.846 1319.58 960.426 1319.87 960.491 1318.97C960.612 1317.37 960.476 1315.41 959.879 1313.88C959.659 1313.33 959.157 1312.83 958.52 1313.1C957.753 1313.44 957.746 1314.35 957.925 1315.11Z" fill="#CCD0D3"/>
<rect x="897" y="1291.82" width="39" height="64.6358" transform="rotate(-16.1053 897 1291.82)" fill="white"/>
</g>
<path d="M1270 1003.1C1128 1399.5 475 1404 331 1006.62L380.5 1026.23L400 985.513C512.5 1286.58 1028.5 1347.5 1198 983L1218.5 1023.21L1270 1003.1Z" fill="#003593"/>
<path d="M1096 1307.5C955 1431.5 639.5 1426 504.5 1307.5L535.5 1255.5C710.5 1387 963.5 1335.5 1065 1255.5L1096 1307.5Z" fill="#003593"/>
<path d="M841.488 1374.64L841.956 1374.65C843.675 1374.69 845.186 1374.53 846.492 1374.16C847.797 1373.79 848.896 1373.21 849.789 1372.43C850.697 1371.64 851.391 1370.65 851.871 1369.45C852.351 1368.25 852.609 1366.81 852.646 1365.16L852.795 1358.41C852.821 1357.24 852.734 1356.22 852.535 1355.36C852.351 1354.48 852.062 1353.74 851.669 1353.16C851.276 1352.57 850.809 1352.13 850.268 1351.84C849.728 1351.54 849.129 1351.39 848.473 1351.37C847.786 1351.36 847.173 1351.53 846.634 1351.87C846.11 1352.22 845.654 1352.7 845.266 1353.3C844.877 1353.9 844.581 1354.58 844.377 1355.34C844.172 1356.1 844.061 1356.88 844.044 1357.68C844.025 1358.54 844.1 1359.34 844.271 1360.1C844.458 1360.85 844.732 1361.51 845.095 1362.08C845.457 1362.65 845.924 1363.11 846.494 1363.45C847.065 1363.78 847.734 1363.95 848.499 1363.96C849.265 1363.98 849.932 1363.86 850.5 1363.59C851.084 1363.32 851.577 1362.95 851.978 1362.49C852.394 1362.03 852.71 1361.53 852.925 1360.99C853.141 1360.43 853.255 1359.88 853.267 1359.33L855.483 1360.88C855.46 1361.93 855.203 1362.96 854.712 1363.96C854.236 1364.97 853.583 1365.87 852.752 1366.68C851.922 1367.49 850.962 1368.14 849.873 1368.61C848.8 1369.07 847.662 1369.29 846.459 1369.26C844.897 1369.23 843.498 1368.92 842.26 1368.33C841.039 1367.74 840.01 1366.93 839.173 1365.89C838.337 1364.84 837.708 1363.61 837.286 1362.19C836.864 1360.78 836.672 1359.22 836.709 1357.54C836.746 1355.88 837.061 1354.33 837.656 1352.89C838.251 1351.44 839.076 1350.17 840.131 1349.08C841.187 1347.99 842.433 1347.15 843.868 1346.54C845.32 1345.93 846.912 1345.64 848.646 1345.68C850.349 1345.72 851.904 1346.08 853.311 1346.77C854.718 1347.44 855.94 1348.39 856.975 1349.62C858.011 1350.84 858.799 1352.32 859.339 1354.05C859.894 1355.79 860.148 1357.73 860.1 1359.88L860.044 1362.42C859.993 1364.73 859.68 1366.85 859.106 1368.77C858.532 1370.7 857.713 1372.4 856.649 1373.87C855.6 1375.35 854.338 1376.6 852.862 1377.61C851.402 1378.63 849.752 1379.39 847.912 1379.89C846.088 1380.38 844.098 1380.61 841.943 1380.56L841.357 1380.54L841.488 1374.64Z" fill="white"/>
<path d="M691.644 1368.11L690.58 1373.28L667.716 1368.57L668.624 1364.16L681.824 1354.8C683.16 1353.81 684.236 1352.92 685.052 1352.13C685.872 1351.33 686.495 1350.59 686.922 1349.91C687.367 1349.22 687.659 1348.54 687.798 1347.87C688.006 1346.86 688.016 1345.96 687.827 1345.17C687.642 1344.36 687.261 1343.7 686.685 1343.16C686.124 1342.63 685.37 1342.27 684.421 1342.07C683.411 1341.86 682.488 1341.93 681.652 1342.27C680.832 1342.61 680.141 1343.18 679.579 1343.97C679.032 1344.77 678.645 1345.72 678.418 1346.82L671.784 1345.45C672.194 1343.46 673.043 1341.74 674.332 1340.28C675.625 1338.81 677.237 1337.76 679.168 1337.14C681.102 1336.5 683.255 1336.42 685.627 1336.91C687.969 1337.4 689.864 1338.18 691.313 1339.28C692.781 1340.37 693.781 1341.7 694.315 1343.3C694.866 1344.88 694.94 1346.65 694.537 1348.61C694.31 1349.71 693.912 1350.75 693.342 1351.74C692.776 1352.7 692.057 1353.64 691.184 1354.55C690.33 1355.44 689.335 1356.32 688.2 1357.19C687.064 1358.05 685.821 1358.94 684.47 1359.84L677.32 1365.16L691.644 1368.11Z" fill="white"/>
<path d="M702.246 1369.05L702.7 1369.16C704.365 1369.59 705.874 1369.78 707.227 1369.73C708.584 1369.66 709.786 1369.34 710.832 1368.79C711.897 1368.23 712.799 1367.42 713.538 1366.37C714.281 1365.3 714.859 1363.96 715.273 1362.36L716.958 1355.82C717.25 1354.69 717.398 1353.68 717.4 1352.79C717.422 1351.89 717.308 1351.11 717.059 1350.45C716.81 1349.79 716.456 1349.26 715.996 1348.85C715.537 1348.44 714.99 1348.15 714.354 1347.99C713.688 1347.82 713.053 1347.84 712.449 1348.05C711.86 1348.27 711.308 1348.63 710.793 1349.13C710.278 1349.62 709.834 1350.22 709.461 1350.91C709.088 1351.61 708.803 1352.34 708.604 1353.11C708.389 1353.95 708.279 1354.75 708.274 1355.52C708.283 1356.3 708.399 1357.01 708.622 1357.64C708.845 1358.28 709.195 1358.83 709.673 1359.29C710.155 1359.74 710.767 1360.06 711.508 1360.25C712.249 1360.44 712.927 1360.47 713.542 1360.34C714.172 1360.21 714.735 1359.97 715.23 1359.61C715.741 1359.26 716.162 1358.85 716.496 1358.37C716.833 1357.87 717.069 1357.36 717.206 1356.83L719.01 1358.85C718.749 1359.86 718.265 1360.8 717.557 1361.67C716.865 1362.54 716.022 1363.27 715.029 1363.87C714.035 1364.47 712.954 1364.88 711.785 1365.09C710.636 1365.29 709.478 1365.25 708.313 1364.95C706.8 1364.56 705.509 1363.93 704.439 1363.08C703.384 1362.22 702.567 1361.2 701.988 1360C701.413 1358.79 701.082 1357.44 700.994 1355.97C700.906 1354.49 701.073 1352.94 701.494 1351.31C701.908 1349.7 702.568 1348.27 703.475 1347C704.387 1345.72 705.48 1344.67 706.755 1343.85C708.031 1343.03 709.437 1342.49 710.974 1342.23C712.526 1341.97 714.141 1342.05 715.821 1342.48C717.47 1342.91 718.901 1343.62 720.114 1344.61C721.331 1345.58 722.304 1346.79 723.033 1348.22C723.761 1349.65 724.191 1351.27 724.322 1353.07C724.468 1354.89 724.272 1356.84 723.734 1358.92L723.102 1361.38C722.525 1363.62 721.737 1365.61 720.739 1367.35C719.741 1369.09 718.556 1370.56 717.183 1371.76C715.825 1372.96 714.312 1373.88 712.643 1374.53C710.99 1375.19 709.21 1375.55 707.303 1375.63C705.416 1375.69 703.428 1375.45 701.34 1374.91L700.772 1374.77L702.246 1369.05Z" fill="white"/>
<path d="M893.231 1366.23C893.468 1368.38 893.163 1370.23 892.316 1371.81C891.468 1373.38 890.207 1374.63 888.533 1375.55C886.875 1376.47 884.928 1377.06 882.691 1377.31C880.471 1377.55 878.435 1377.41 876.583 1376.87C874.747 1376.34 873.236 1375.4 872.049 1374.05C870.862 1372.71 870.15 1370.96 869.913 1368.82C869.751 1367.36 869.892 1366.01 870.338 1364.79C870.799 1363.56 871.504 1362.47 872.453 1361.53C873.418 1360.59 874.583 1359.83 875.948 1359.24C877.328 1358.64 878.85 1358.25 880.511 1358.07C882.747 1357.82 884.786 1357.99 886.627 1358.57C888.482 1359.13 889.992 1360.07 891.158 1361.37C892.325 1362.67 893.015 1364.29 893.231 1366.23ZM885.857 1366.51C885.746 1365.51 885.467 1364.7 885.019 1364.05C884.584 1363.4 884.02 1362.92 883.326 1362.61C882.631 1362.3 881.848 1362.19 880.979 1362.29C880.109 1362.38 879.37 1362.66 878.76 1363.12C878.149 1363.57 877.696 1364.16 877.401 1364.9C877.12 1365.62 877.034 1366.48 877.144 1367.47C877.251 1368.44 877.53 1369.26 877.982 1369.93C878.433 1370.59 879.005 1371.06 879.698 1371.36C880.39 1371.65 881.178 1371.74 882.064 1371.65C882.949 1371.55 883.69 1371.28 884.287 1370.86C884.883 1370.41 885.32 1369.82 885.6 1369.08C885.878 1368.33 885.963 1367.47 885.857 1366.51ZM890.78 1350.73C890.975 1352.48 890.68 1354.08 889.897 1355.52C889.127 1356.94 887.96 1358.12 886.397 1359.04C884.831 1359.96 882.985 1360.53 880.857 1360.77C878.73 1361 876.795 1360.85 875.052 1360.3C873.323 1359.74 871.912 1358.85 870.818 1357.63C869.738 1356.4 869.101 1354.91 868.907 1353.15C868.679 1351.1 868.953 1349.32 869.728 1347.8C870.519 1346.29 871.697 1345.07 873.262 1344.16C874.827 1343.25 876.666 1342.67 878.778 1342.44C880.921 1342.2 882.856 1342.36 884.583 1342.9C886.31 1343.45 887.718 1344.38 888.807 1345.69C889.895 1347 890.553 1348.68 890.78 1350.73ZM883.554 1351.91C883.459 1351.05 883.23 1350.33 882.866 1349.74C882.516 1349.14 882.05 1348.69 881.468 1348.41C880.885 1348.12 880.198 1348.01 879.406 1348.1C878.645 1348.18 878.011 1348.43 877.506 1348.83C876.998 1349.22 876.632 1349.74 876.408 1350.41C876.197 1351.06 876.141 1351.83 876.239 1352.72C876.336 1353.59 876.56 1354.33 876.912 1354.95C877.277 1355.56 877.753 1356.02 878.337 1356.33C878.936 1356.62 879.624 1356.73 880.4 1356.64C881.192 1356.56 881.832 1356.3 882.321 1355.89C882.823 1355.45 883.179 1354.9 883.388 1354.24C883.595 1353.55 883.65 1352.78 883.554 1351.91Z" fill="white"/>
<path d="M927.12 1360.46C927.462 1362.59 927.247 1364.46 926.477 1366.07C925.706 1367.69 924.507 1368.99 922.88 1370C921.268 1371 919.352 1371.68 917.13 1372.04C914.924 1372.39 912.883 1372.34 911.008 1371.9C909.149 1371.45 907.594 1370.59 906.343 1369.3C905.092 1368.01 904.296 1366.31 903.955 1364.18C903.723 1362.73 903.799 1361.38 904.185 1360.13C904.585 1358.88 905.237 1357.76 906.14 1356.78C907.058 1355.79 908.184 1354.97 909.519 1354.31C910.869 1353.65 912.37 1353.19 914.021 1352.93C916.242 1352.57 918.287 1352.64 920.154 1353.13C922.033 1353.61 923.587 1354.46 924.815 1355.71C926.043 1356.95 926.811 1358.54 927.12 1360.46ZM919.769 1361.1C919.61 1360.11 919.292 1359.31 918.813 1358.69C918.346 1358.05 917.76 1357.6 917.052 1357.33C916.343 1357.05 915.556 1356.98 914.692 1357.12C913.828 1357.25 913.103 1357.57 912.517 1358.06C911.928 1358.53 911.504 1359.15 911.245 1359.9C910.999 1360.64 910.955 1361.5 911.113 1362.48C911.267 1363.44 911.585 1364.24 912.069 1364.89C912.551 1365.53 913.145 1365.98 913.853 1366.25C914.557 1366.5 915.349 1366.55 916.229 1366.41C917.108 1366.27 917.836 1365.97 918.412 1365.52C918.985 1365.04 919.393 1364.43 919.637 1363.68C919.878 1362.92 919.922 1362.05 919.769 1361.1ZM923.922 1345.1C924.201 1346.84 923.985 1348.45 923.272 1349.93C922.571 1351.38 921.463 1352.61 919.946 1353.62C918.427 1354.6 916.611 1355.27 914.497 1355.6C912.383 1355.94 910.443 1355.88 908.676 1355.42C906.922 1354.94 905.469 1354.12 904.318 1352.96C903.18 1351.78 902.471 1350.32 902.191 1348.58C901.865 1346.54 902.052 1344.75 902.753 1343.2C903.469 1341.64 904.587 1340.37 906.106 1339.38C907.625 1338.4 909.434 1337.73 911.532 1337.4C913.661 1337.06 915.602 1337.12 917.353 1337.58C919.105 1338.04 920.556 1338.9 921.707 1340.16C922.857 1341.42 923.596 1343.06 923.922 1345.1ZM916.761 1346.62C916.625 1345.78 916.361 1345.07 915.969 1344.5C915.59 1343.91 915.103 1343.49 914.509 1343.24C913.912 1342.97 913.22 1342.9 912.433 1343.02C911.677 1343.14 911.057 1343.42 910.571 1343.84C910.083 1344.25 909.743 1344.8 909.551 1345.48C909.372 1346.14 909.353 1346.91 909.494 1347.79C909.633 1348.65 909.893 1349.39 910.274 1349.99C910.669 1350.58 911.166 1351.01 911.765 1351.29C912.377 1351.56 913.069 1351.63 913.841 1351.51C914.627 1351.38 915.255 1351.1 915.722 1350.66C916.203 1350.2 916.532 1349.64 916.708 1348.96C916.882 1348.27 916.899 1347.49 916.761 1346.62Z" fill="white"/>
<path d="M745.865 1363.24V1368.54H732.623V1363.24H745.865Z" fill="white"/>
<path d="M809.865 1364.24V1369.54H796.623V1364.24H809.865Z" fill="white"/>
<path d="M764.797 1345.8V1380H758.047V1353.59L749.938 1356.16V1350.84L764.07 1345.8H764.797Z" fill="white"/>
<path d="M785.797 1345.8V1380H779.047V1353.59L770.938 1356.16V1350.84L785.07 1345.8H785.797Z" fill="white"/>
<path d="M827.797 1345.8V1380H821.047V1353.59L812.938 1356.16V1350.84L827.07 1345.8H827.797Z" fill="white"/>
<path d="M526.258 1178.61L528.171 1175.69C528.727 1174.84 529.464 1174.07 530.382 1173.38C531.299 1172.69 532.287 1172.12 533.345 1171.68C534.412 1171.22 535.449 1170.92 536.458 1170.78L538.084 1174.03C537.1 1174.5 536.142 1175.08 535.212 1175.76C534.281 1176.44 533.418 1177.39 532.622 1178.6L530.709 1181.52L526.258 1178.61ZM532.924 1182.97L534.838 1180.05C535.394 1179.2 536.131 1178.43 537.048 1177.75C537.966 1177.06 538.953 1176.49 540.012 1176.04C541.078 1175.58 542.116 1175.28 543.124 1175.14L544.75 1178.39C543.766 1178.87 542.809 1179.44 541.878 1180.12C540.948 1180.8 540.085 1181.75 539.288 1182.97L537.375 1185.89L532.924 1182.97Z" fill="white"/>
<path d="M551.576 1210.98L563.415 1190.51L569.481 1194.02L557.642 1214.49C556.5 1216.46 555.086 1217.91 553.399 1218.83C551.72 1219.74 549.91 1220.13 547.971 1220.02C546.045 1219.92 544.149 1219.33 542.282 1218.25C540.348 1217.13 538.825 1215.82 537.712 1214.31C536.6 1212.8 536.005 1211.13 535.927 1209.3C535.857 1207.45 536.421 1205.49 537.617 1203.42L543.724 1206.95C543.099 1208.04 542.751 1208.98 542.681 1209.79C542.624 1210.6 542.802 1211.31 543.213 1211.91C543.625 1212.51 544.23 1213.04 545.028 1213.5C545.799 1213.95 546.574 1214.15 547.353 1214.12C548.132 1214.08 548.881 1213.8 549.599 1213.28C550.33 1212.76 550.989 1212 551.576 1210.98Z" fill="white"/>
<path d="M595.539 1225.37L594.828 1226.83C593.688 1229.16 592.348 1231.09 590.81 1232.64C589.272 1234.18 587.607 1235.32 585.818 1236.06C584.035 1236.79 582.175 1237.11 580.239 1237.01C578.316 1236.92 576.387 1236.41 574.45 1235.46C572.528 1234.52 570.935 1233.31 569.672 1231.84C568.422 1230.38 567.532 1228.71 566.999 1226.85C566.473 1224.98 566.341 1222.95 566.602 1220.79C566.877 1218.62 567.585 1216.38 568.726 1214.05L569.437 1212.6C570.584 1210.25 571.923 1208.32 573.455 1206.79C574.993 1205.24 576.657 1204.1 578.447 1203.36C580.251 1202.62 582.114 1202.3 584.036 1202.39C585.973 1202.49 587.902 1203 589.825 1203.95C591.761 1204.89 593.354 1206.1 594.604 1207.56C595.867 1209.03 596.754 1210.7 597.266 1212.57C597.792 1214.45 597.917 1216.47 597.642 1218.63C597.387 1220.78 596.686 1223.03 595.539 1225.37ZM588.45 1223.7L589.182 1222.21C589.978 1220.58 590.532 1219.08 590.842 1217.7C591.152 1216.32 591.225 1215.07 591.062 1213.95C590.899 1212.82 590.506 1211.85 589.884 1211.02C589.269 1210.18 588.428 1209.5 587.362 1208.98C586.295 1208.45 585.242 1208.21 584.201 1208.24C583.181 1208.26 582.177 1208.55 581.189 1209.11C580.216 1209.68 579.279 1210.51 578.38 1211.6C577.481 1212.69 576.633 1214.05 575.836 1215.68L575.104 1217.17C574.314 1218.79 573.76 1220.29 573.444 1221.68C573.134 1223.06 573.057 1224.32 573.213 1225.46C573.377 1226.58 573.766 1227.56 574.381 1228.4C574.996 1229.24 575.836 1229.93 576.903 1230.45C577.969 1230.97 579.023 1231.22 580.064 1231.19C581.105 1231.16 582.112 1230.86 583.086 1230.29C584.066 1229.71 585.006 1228.87 585.906 1227.78C586.812 1226.68 587.66 1225.32 588.45 1223.7Z" fill="white"/>
<path d="M617.876 1244.32C618.104 1243.75 618.222 1243.21 618.229 1242.69C618.257 1242.16 618.122 1241.62 617.824 1241.06C617.533 1240.49 617.057 1239.85 616.398 1239.15C615.738 1238.44 614.845 1237.63 613.719 1236.7C612.472 1235.66 611.32 1234.59 610.264 1233.49C609.222 1232.4 608.364 1231.27 607.688 1230.1C607.032 1228.93 606.63 1227.71 606.479 1226.45C606.343 1225.2 606.55 1223.9 607.099 1222.53C607.631 1221.22 608.403 1220.14 609.415 1219.3C610.433 1218.45 611.618 1217.84 612.971 1217.5C614.33 1217.14 615.805 1217.03 617.394 1217.18C618.998 1217.34 620.655 1217.77 622.365 1218.45C624.698 1219.4 626.565 1220.64 627.965 1222.18C629.365 1223.72 630.248 1225.42 630.615 1227.26C630.995 1229.12 630.806 1230.99 630.046 1232.87L623.569 1230.26C623.943 1229.33 624.074 1228.44 623.963 1227.59C623.873 1226.73 623.518 1225.94 622.899 1225.22C622.295 1224.5 621.406 1223.91 620.232 1223.43C619.102 1222.98 618.09 1222.77 617.196 1222.81C616.308 1222.84 615.559 1223.07 614.948 1223.5C614.343 1223.91 613.898 1224.48 613.612 1225.19C613.396 1225.72 613.33 1226.26 613.416 1226.8C613.516 1227.35 613.758 1227.91 614.142 1228.51C614.526 1229.1 615.043 1229.72 615.691 1230.37C616.339 1231.02 617.113 1231.71 618.014 1232.44C619.528 1233.66 620.805 1234.86 621.847 1236.04C622.902 1237.22 623.709 1238.4 624.265 1239.56C624.822 1240.73 625.118 1241.92 625.152 1243.13C625.187 1244.34 624.941 1245.6 624.415 1246.9C623.86 1248.28 623.095 1249.4 622.121 1250.27C621.146 1251.14 620 1251.75 618.682 1252.1C617.364 1252.44 615.923 1252.53 614.359 1252.35C612.796 1252.17 611.145 1251.74 609.406 1251.03C607.841 1250.4 606.379 1249.58 605.021 1248.56C603.669 1247.53 602.539 1246.34 601.632 1244.99C600.739 1243.66 600.186 1242.19 599.973 1240.59C599.76 1238.98 600.012 1237.29 600.731 1235.51L607.274 1238.15C606.877 1239.13 606.693 1240.03 606.722 1240.83C606.752 1241.63 606.958 1242.36 607.339 1243C607.734 1243.65 608.278 1244.22 608.97 1244.72C609.677 1245.22 610.494 1245.66 611.422 1246.04C612.552 1246.49 613.544 1246.71 614.397 1246.68C615.264 1246.66 615.986 1246.44 616.562 1246.01C617.152 1245.59 617.59 1245.03 617.876 1244.32Z" fill="white"/>
<path d="M654.432 1260.72L652.716 1265.93L635.464 1260.25L637.179 1255.04L654.432 1260.72ZM648.318 1228.56L637.645 1260.97L630.967 1258.77L641.64 1226.36L648.318 1228.56ZM656.794 1245.98L655.123 1251.05L640.118 1246.11L641.79 1241.04L656.794 1245.98ZM663.367 1233.51L661.644 1238.74L644.414 1233.07L646.136 1227.84L663.367 1233.51ZM650.485 1227.15L657.106 1221.73L664.073 1224.02L655.694 1228.86L650.485 1227.15Z" fill="white"/>
<path d="M692.739 1241.21L685.2 1274.49L678.343 1272.94L685.882 1239.65L692.739 1241.21ZM702.776 1258.43L701.565 1263.78L686.433 1260.35L687.644 1255L702.776 1258.43ZM707.597 1244.57L706.38 1249.95L689.648 1246.16L690.865 1240.78L707.597 1244.57Z" fill="white"/>
<path d="M733.402 1277.97L732.525 1283.39L714.595 1280.48L715.471 1275.07L733.402 1277.97ZM722.316 1247.16L716.862 1280.85L709.921 1279.73L715.375 1246.04L722.316 1247.16ZM733.421 1263.04L732.567 1268.32L716.973 1265.79L717.827 1260.52L733.421 1263.04ZM737.956 1249.7L737.076 1255.13L719.168 1252.23L720.049 1246.8L737.956 1249.7Z" fill="white"/>
<path d="M745.09 1250.61L757.76 1251.81C760.358 1252.06 762.554 1252.66 764.347 1253.61C766.155 1254.57 767.493 1255.85 768.36 1257.47C769.227 1259.09 769.555 1261.02 769.344 1263.24C769.172 1265.06 768.713 1266.6 767.967 1267.84C767.238 1269.08 766.273 1270.08 765.07 1270.84C763.885 1271.59 762.521 1272.15 760.979 1272.53L758.652 1273.48L747.639 1272.44L748.109 1266.98L756.299 1267.75C757.528 1267.87 758.567 1267.75 759.417 1267.39C760.267 1267.03 760.932 1266.48 761.41 1265.74C761.903 1265 762.199 1264.12 762.296 1263.09C762.399 1262 762.286 1261.04 761.956 1260.21C761.627 1259.38 761.07 1258.71 760.285 1258.22C759.5 1257.72 758.486 1257.41 757.241 1257.29L751.572 1256.76L748.875 1285.25L741.875 1284.58L745.09 1250.61ZM760.869 1286.38L754.555 1270.51L761.956 1271.16L768.389 1286.76L768.359 1287.09L760.869 1286.38Z" fill="white"/>
<path d="M778.918 1253.49L791.641 1253.8C794.25 1253.87 796.482 1254.31 798.337 1255.14C800.208 1255.97 801.633 1257.16 802.611 1258.71C803.589 1260.27 804.051 1262.16 803.996 1264.4C803.952 1266.22 803.601 1267.79 802.945 1269.08C802.304 1270.36 801.411 1271.43 800.265 1272.28C799.135 1273.11 797.814 1273.76 796.302 1274.24L794.047 1275.36L782.988 1275.09L783.074 1269.61L791.299 1269.81C792.533 1269.84 793.561 1269.64 794.384 1269.23C795.207 1268.81 795.831 1268.21 796.256 1267.44C796.697 1266.67 796.93 1265.77 796.955 1264.74C796.981 1263.65 796.801 1262.7 796.414 1261.89C796.028 1261.08 795.426 1260.46 794.608 1260.02C793.79 1259.58 792.757 1259.34 791.507 1259.31L785.813 1259.17L785.118 1287.78L778.088 1287.61L778.918 1253.49ZM797.161 1288.07L789.752 1272.68L797.18 1272.81L804.69 1287.93L804.682 1288.26L797.161 1288.07Z" fill="white"/>
<path d="M837.053 1281.61L837.282 1287.09L819.134 1287.85L818.905 1282.37L837.053 1281.61ZM820.002 1253.66L821.429 1287.75L814.404 1288.05L812.977 1253.95L820.002 1253.66ZM834.071 1266.98L834.295 1272.32L818.512 1272.98L818.288 1267.64L834.071 1266.98ZM835.832 1253L836.062 1258.5L817.937 1259.26L817.707 1253.76L835.832 1253Z" fill="white"/>
<path d="M850.89 1251.59L854.039 1285.57L847.061 1286.22L843.912 1252.24L850.89 1251.59Z" fill="white"/>
<path d="M861.771 1250.54L874.361 1248.68C876.942 1248.3 879.217 1248.36 881.186 1248.86C883.171 1249.35 884.778 1250.28 886.006 1251.65C887.235 1253.02 888.013 1254.8 888.34 1257.01C888.608 1258.82 888.528 1260.42 888.102 1261.81C887.689 1263.18 886.99 1264.38 886.005 1265.41C885.034 1266.43 883.844 1267.3 882.435 1268.03L880.404 1269.51L869.461 1271.13L868.612 1265.71L876.75 1264.51C877.971 1264.33 878.951 1263.96 879.691 1263.41C880.431 1262.86 880.944 1262.17 881.232 1261.33C881.535 1260.5 881.611 1259.57 881.46 1258.55C881.3 1257.47 880.961 1256.57 880.442 1255.84C879.924 1255.11 879.224 1254.6 878.343 1254.3C877.462 1254 876.403 1253.95 875.167 1254.13L869.533 1254.96L873.721 1283.27L866.766 1284.3L861.771 1250.54ZM885.638 1281.51L875.715 1267.6L883.057 1266.47L893.033 1280.08L893.081 1280.41L885.638 1281.51Z" fill="white"/>
<path d="M910.069 1247.98L907.151 1277.61L899.853 1279.24L904.821 1243.17L909.465 1242.14L910.069 1247.98ZM923.738 1273.92L908.513 1248.33L906.514 1242.79L911.204 1241.75L931.059 1272.29L923.738 1273.92ZM920.568 1261.61L921.764 1266.99L904.171 1270.9L902.975 1265.53L920.568 1261.61Z" fill="white"/>
<path d="M975.55 1252.91L977.27 1258.12L960.957 1263.51L959.237 1258.3L975.55 1252.91ZM952.412 1230.39L963.116 1262.8L956.44 1265L945.735 1232.6L952.412 1230.39Z" fill="white"/>
<path d="M980.642 1220.28L992.94 1252.11L986.403 1254.64L974.105 1222.81L980.642 1220.28Z" fill="white"/>
<path d="M993.5 1215.26L998.899 1212.75L1017.4 1231.78L1014.8 1205.37L1020.2 1202.86L1023.39 1239L1019.06 1241.02L993.5 1215.26ZM990.588 1216.61L995.965 1214.11L1007.23 1235.81L1011.32 1244.61L1004.96 1247.56L990.588 1216.61ZM1017.73 1204L1023.13 1201.5L1037.51 1232.45L1031.13 1235.41L1027.04 1226.61L1017.73 1204Z" fill="white"/>
<path d="M1046.6 1195.1L1052.56 1224.27L1046.06 1227.98L1040.16 1192.05L1044.3 1189.69L1046.6 1195.1ZM1067.32 1215.85L1045.21 1195.89L1041.67 1191.19L1045.84 1188.81L1073.83 1212.13L1067.32 1215.85ZM1060.65 1205.03L1063.38 1209.81L1047.73 1218.74L1045 1213.96L1060.65 1205.03Z" fill="white"/>
<path d="M1066.89 1173.67L1068.84 1176.65C1069.39 1177.5 1069.8 1178.48 1070.07 1179.6C1070.35 1180.7 1070.48 1181.84 1070.48 1183C1070.46 1184.15 1070.32 1185.21 1070.05 1186.19L1066.4 1186.4C1066.38 1185.31 1066.24 1184.2 1065.99 1183.08C1065.73 1181.94 1065.21 1180.77 1064.42 1179.57L1062.46 1176.57L1066.89 1173.67ZM1073.65 1169.24L1075.6 1172.22C1076.16 1173.07 1076.57 1174.05 1076.83 1175.17C1077.11 1176.27 1077.25 1177.41 1077.24 1178.57C1077.23 1179.72 1077.08 1180.78 1076.81 1181.76L1073.16 1181.97C1073.14 1180.88 1073.01 1179.77 1072.75 1178.65C1072.5 1177.51 1071.97 1176.34 1071.18 1175.14L1069.22 1172.14L1073.65 1169.24Z" fill="white"/>
<path fill-rule="evenodd" clip-rule="evenodd" d="M579.718 336.019L594.792 336.09L596.998 347.73C640.372 368.23 701.013 332.878 652.096 329.336L653.147 315.824L674.859 313.687C684.08 284.326 664.296 291.979 650.317 292.221L650.774 269.534C661.194 270.241 674.348 268.064 687.927 259.504L724.037 261.297C726.47 266.662 733.569 268.956 745.312 268.155L740.399 286.542L750.376 297.407C752.098 323.374 750.435 350.488 805.874 357.747L944.946 363.313C995.834 349.112 1018.97 329.23 992.622 299.176C957.21 284.067 929.875 306.168 900.929 320.822C860.213 346.635 834.484 349.104 815.585 340.94C789.267 314.551 796.058 279.43 870.559 278.659C881.741 280.642 891.409 277.966 899.584 270.653C902.68 284.339 888.806 294.85 857.942 302.189L848.78 318.647C834.182 291.677 802.419 312.813 827.876 331.145C835.215 333.571 848.772 329.816 868.545 319.903C932.754 281.868 966.785 273.096 996.75 284.471C1042.01 314.899 1022.25 362.84 944.635 383.016L943.889 429.928L990.889 439.781L992.459 488.941L944.312 489.572L944.338 479.456C976.524 456.829 966.882 449.521 915.431 457.509L894.277 448.238C874.712 460.457 858.212 474.248 844.821 489.589L804.315 489.334L803.078 477.04C824.56 467.617 839.855 453.513 849.005 434.751C790.79 425.306 734.846 422.872 694.976 469.491C672.226 468.485 657.163 475.283 649.788 489.862L614.921 489.568L614.734 477.871C704.309 439.955 681.996 354.667 630.474 396.667C618.204 374.139 601.238 365.546 579.555 370.864L579.718 336.019Z" fill="#FFCA08" stroke="#1B1918" stroke-width="2"/>
<path d="M894.63 447.845C882.327 436.948 859.519 434.142 847.221 422.082" stroke="#1B1918" stroke-width="2"/>
<path d="M841.802 295.29L849.921 295.328L849.983 282.008L841.864 281.97L841.802 295.29Z" stroke="#1B1918" stroke-width="2"/>
<path d="M856.195 295.773L864.313 295.811L864.376 282.492L856.257 282.454L856.195 295.773Z" stroke="#1B1918" stroke-width="2"/>
<path d="M691.887 407.4L700.006 407.438L700.109 385.363L691.99 385.325L691.887 407.4Z" stroke="#1B1918" stroke-width="2"/>
<path d="M706.257 408.168L714.375 408.206L714.479 386.132L706.36 386.094L706.257 408.168Z" stroke="#1B1918" stroke-width="2"/>
<path d="M622.738 385.242L630.857 385.28L630.922 371.434L622.803 371.396L622.738 385.242Z" stroke="#1B1918" stroke-width="2"/>
<path d="M637.108 385.749L645.227 385.786L645.292 371.941L637.173 371.903L637.108 385.749Z" stroke="#1B1918" stroke-width="2"/>
<path d="M739.808 426.912L747.927 426.95L748.03 404.875L739.911 404.837L739.808 426.912Z" stroke="#1B1918" stroke-width="2"/>
<path d="M754.178 427.659L762.297 427.697L762.4 405.644L754.281 405.606L754.178 427.659Z" stroke="#1B1918" stroke-width="2"/>
<path d="M678.706 448.218L686.825 448.256L686.928 426.204L678.809 426.166L678.706 448.218Z" stroke="#1B1918" stroke-width="2"/>
<path d="M693.098 448.987L701.217 449.025L701.32 426.95L693.201 426.912L693.098 448.987Z" stroke="#1B1918" stroke-width="2"/>
<path d="M684.299 345.55L692.418 345.588L692.521 323.513L684.402 323.475L684.299 345.55Z" stroke="#1B1918" stroke-width="2"/>
<path d="M698.668 346.318L706.787 346.356L706.891 324.282L698.772 324.244L698.668 346.318Z" stroke="#1B1918" stroke-width="2"/>
<path d="M773.814 400.102L781.933 400.14L782.036 378.066L773.917 378.028L773.814 400.102Z" stroke="#1B1918" stroke-width="2"/>
<path d="M788.183 400.872L796.302 400.91L796.405 378.835L788.287 378.797L788.183 400.872Z" stroke="#1B1918" stroke-width="2"/>
<path d="M811.612 336.577L819.731 336.615L819.752 332.248L811.633 332.21L811.612 336.577Z" stroke="#1B1918" stroke-width="2"/>
<path d="M825.984 336.799L834.103 336.837L834.123 332.448L826.004 332.41L825.984 336.799Z" stroke="#1B1918" stroke-width="2"/>
<path d="M869.258 425.651L877.377 425.689L877.48 403.615L869.361 403.577L869.258 425.651Z" stroke="#1B1918" stroke-width="2"/>
<path d="M883.627 426.399L891.746 426.437L891.849 404.363L883.73 404.325L883.627 426.399Z" stroke="#1B1918" stroke-width="2"/>
<path d="M902.326 397.456L910.445 397.494L910.548 375.419L902.43 375.381L902.326 397.456Z" stroke="#1B1918" stroke-width="2"/>
<path d="M916.696 398.203L924.815 398.24L924.918 376.166L916.799 376.128L916.696 398.203Z" stroke="#1B1918" stroke-width="2"/>
<path d="M860.073 329.782L868.192 329.82L868.219 323.984L860.1 323.946L860.073 329.782Z" stroke="#1B1918" stroke-width="2"/>
<path d="M874.467 330.025L882.585 330.062L882.613 324.226L874.494 324.188L874.467 330.025Z" stroke="#1B1918" stroke-width="2"/>
<path d="M911.262 302.658L919.381 302.696L919.403 297.978L911.284 297.94L911.262 302.658Z" stroke="#1B1918" stroke-width="2"/>
<path d="M925.634 302.879L933.752 302.916L933.774 298.199L925.656 298.161L925.634 302.879Z" stroke="#1B1918" stroke-width="2"/>
<path d="M970.489 292.885L978.608 292.922L978.651 283.685L970.532 283.647L970.489 292.885Z" stroke="#1B1918" stroke-width="2"/>
<path d="M984.86 293.238L992.979 293.276L993.022 284.06L984.903 284.022L984.86 293.238Z" stroke="#1B1918" stroke-width="2"/>
<path d="M946.897 373.175L955.016 373.213L955.062 363.427L946.943 363.389L946.897 373.175Z" stroke="#1B1918" stroke-width="2"/>
<path d="M961.29 373.549L969.409 373.587L969.455 363.8L961.336 363.762L961.29 373.549Z" stroke="#1B1918" stroke-width="2"/>
<path d="M956.87 488.183L964.989 488.221L965.04 477.227L956.922 477.189L956.87 488.183Z" stroke="#1B1918" stroke-width="2"/>
<path d="M971.263 488.601L979.382 488.639L979.434 477.645L971.315 477.607L971.263 488.601Z" stroke="#1B1918" stroke-width="2"/>
<path d="M618.242 488.003L626.361 488.041L626.418 475.841L618.299 475.803L618.242 488.003Z" stroke="#1B1918" stroke-width="2"/>
<path d="M632.613 488.444L640.732 488.482L640.789 476.304L632.67 476.266L632.613 488.444Z" stroke="#1B1918" stroke-width="2"/>
<path d="M869.257 374.085L877.376 374.123L877.444 359.684L869.325 359.646L869.257 374.085Z" stroke="#1B1918" stroke-width="2"/>
<path d="M883.65 374.613L891.769 374.651L891.837 360.212L883.718 360.174L883.65 374.613Z" stroke="#1B1918" stroke-width="2"/>
<path d="M807.126 371.534L815.245 371.572L815.304 358.933L807.185 358.895L807.126 371.534Z" stroke="#1B1918" stroke-width="2"/>
<path d="M821.497 371.996L829.616 372.034L829.675 359.395L821.556 359.357L821.497 371.996Z" stroke="#1B1918" stroke-width="2"/>
<path d="M691.096 285.632L699.215 285.67L699.318 263.595L691.199 263.557L691.096 285.632Z" stroke="#1B1918" stroke-width="2"/>
<path d="M705.466 286.379L713.585 286.417L713.688 264.342L705.569 264.305L705.466 286.379Z" stroke="#1B1918" stroke-width="2"/>
<path d="M931.613 431.956L939.732 431.994L939.835 409.941L931.716 409.903L931.613 431.956Z" stroke="#1B1918" stroke-width="2"/>
<path d="M981.778 468.901L989.897 468.939L990 446.864L981.882 446.826L981.778 468.901Z" stroke="#1B1918" stroke-width="2"/>
<path d="M1008.37 338.441L1016.49 338.479L1016.59 316.427L1008.47 316.389L1008.37 338.441Z" stroke="#1B1918" stroke-width="2"/>
<path d="M837.845 400.16L845.942 400.198L846.045 378.123L837.948 378.085L837.845 400.16Z" stroke="#1B1918" stroke-width="2"/>
<path d="M852.214 400.929L860.332 400.967L860.436 378.893L852.317 378.855L852.214 400.929Z" stroke="#1B1918" stroke-width="2"/>
<path d="M810.354 422.787L818.473 422.825L818.576 400.772L810.457 400.734L810.354 422.787Z" stroke="#1B1918" stroke-width="2"/>
<path d="M824.744 423.557L832.863 423.594L832.966 401.52L824.848 401.482L824.744 423.557Z" stroke="#1B1918" stroke-width="2"/>
<path d="M844.254 465.471L852.373 465.509L852.476 443.435L844.357 443.397L844.254 465.471Z" stroke="#1B1918" stroke-width="2"/>
<path d="M858.645 466.241L866.764 466.279L866.867 444.205L858.748 444.167L858.645 466.241Z" stroke="#1B1918" stroke-width="2"/>
<path d="M808.659 489.552L816.778 489.59L816.833 477.697L808.714 477.659L808.659 489.552Z" stroke="#1B1918" stroke-width="2"/>
<path d="M823.052 489.993L831.171 490.031L831.226 478.138L823.107 478.1L823.052 489.993Z" stroke="#1B1918" stroke-width="2"/>
<path d="M714.386 316.857L722.505 316.895L722.608 294.82L714.489 294.782L714.386 316.857Z" stroke="#1B1918" stroke-width="2"/>
<path d="M728.755 317.625L736.874 317.663L736.977 295.589L728.859 295.551L728.755 317.625Z" stroke="#1B1918" stroke-width="2"/>
<path d="M639.109 361.335L647.228 361.373L647.263 353.956L639.144 353.918L639.109 361.335Z" stroke="#1B1918" stroke-width="2"/>
<path d="M653.503 361.621L661.622 361.659L661.657 354.265L653.538 354.227L653.503 361.621Z" stroke="#1B1918" stroke-width="2"/>
<path d="M729.64 367.617L737.759 367.655L737.862 345.581L729.744 345.543L729.64 367.617Z" stroke="#1B1918" stroke-width="2"/>
<path d="M744.032 368.365L752.151 368.402L752.254 346.35L744.135 346.312L744.032 368.365Z" stroke="#1B1918" stroke-width="2"/>
<path fill-rule="evenodd" clip-rule="evenodd" d="M664.432 291.169C673.56 291.167 680.724 293.702 674.2 313.926L655.038 315.021C660.488 308.639 663.619 300.688 664.432 291.169Z" fill="#E30016" stroke="#1B1918" stroke-width="2"/>
<path fill-rule="evenodd" clip-rule="evenodd" d="M680.104 282.606C682.679 274.228 688.98 271.464 703.418 281.085C696.52 284.035 688.4 283.561 680.104 282.606Z" fill="#E3E3E3" stroke="black"/>
<path d="M693.222 278.029C693.432 280.187 691.386 282.901 689.082 283.126C686.778 283.351 683.678 282.413 683.467 280.255C683.256 278.098 685.71 275.243 688.014 275.018C690.318 274.793 693.011 275.871 693.222 278.029Z" fill="black"/>
<defs>
<clipPath id="clip0_19_391">
<rect width="53" height="53" fill="white" transform="translate(618.648 1256) rotate(22.9292)"/>
</clipPath>
<clipPath id="clip1_19_391">
<rect width="53" height="53" fill="white" transform="translate(906 1290.96) rotate(-26.8792)"/>
</clipPath>
</defs>
</svg>
